<svg width="782" height="77" viewBox="0 0 782 77" fill="none" xmlns="http://www.w3.org/2000/svg">
<path fill-rule="evenodd" clip-rule="evenodd" d="M0.896484 76.0156H75.3599V1.01562H0.896484V76.0156ZM26.5631 36.8467H19.0348H18.4887V28.7142V24.4318C18.4887 23.3711 18.5668 23.0961 18.6838 22.8603C18.8008 22.5853 18.9958 22.3496 19.3469 22.271C20.5171 21.8389 22.0383 21.721 23.5986 21.721C26.056 21.6817 28.5524 21.721 30.7368 22.0353C34.2084 22.546 36.5098 22.9782 37.1339 26.6319C37.2205 27.1989 37.2951 27.8264 37.3776 28.5211C37.4438 29.078 37.5152 29.6781 37.602 30.325H38.3821C38.6941 27.9677 39.3182 25.0212 41.2296 23.5282C42.9068 22.1924 46.1054 21.721 48.4068 21.721C49.0569 21.721 49.4339 21.7341 49.538 21.7603C49.733 21.8389 49.811 21.9567 49.811 22.9389V52.9546C49.811 54.0023 49.746 54.644 49.616 54.8797C49.4859 55.1416 49.2129 55.3512 48.7968 55.5083C47.6266 55.9798 45.3643 56.0976 44.077 56.0976V56.7262H61.2399V56.0976C59.9137 56.0976 57.6513 55.9798 56.4421 55.5083C56 55.3512 55.753 55.194 55.701 55.0369C55.545 54.7226 55.4669 54.0285 55.4669 52.9546V22.8603C55.4669 22.0407 55.5722 21.963 55.7161 21.8566C55.7239 21.8508 55.7319 21.845 55.74 21.8389C55.818 21.7603 56.2081 21.721 56.9102 21.721C59.5236 21.721 62.9172 22.1924 64.7115 23.5675C66.8323 25.1987 67.1234 27.2523 67.5443 30.2215L67.559 30.325C67.559 30.3774 67.572 30.4297 67.598 30.4821H68.3391V30.325V20.3066H7.91797V20.8567C9.12717 20.8567 10.8435 21.1317 11.9356 21.5246C12.3257 21.6817 12.5597 21.8389 12.6378 21.996C12.7938 22.2579 12.8718 22.9389 12.8718 24.039V52.9546C12.8718 54.0023 12.8068 54.644 12.6768 54.8797C12.0216 56.1261 9.29468 56.1069 8.14055 56.0987C8.05783 56.0982 7.98319 56.0976 7.91797 56.0976V56.7262H38.6941V47.4151H38.07C37.719 50.9117 35.8076 52.5225 33.1162 53.8582C32.2581 54.2904 31.3999 54.5654 30.4637 54.8011C27.6163 55.5083 24.6128 55.3512 21.6873 55.194C21.0632 55.194 19.0348 54.8404 18.7228 54.2118C18.7069 54.1745 18.691 54.14 18.6754 54.1062C18.5761 53.891 18.4887 53.7016 18.4887 52.9546V46.7079V38.6539H21.8823H24.5348H26.5631C28.7475 38.6539 30.5028 40.1469 30.5028 42.3077V44.0756V44.7828H31.751V30.6786H30.5028V30.7964V33.1144C30.5028 35.2752 28.7475 36.8467 26.5631 36.8467Z" fill="#D9D9D9"/>
<path d="M516.994 66.6594L512.235 54.2943L511.182 56.4007H497.998V52.305H508.647L512.742 44.1136L516.37 53.5922L522.338 32.0996L527.019 52.305H536.654V56.4007H523.742L521.987 48.7164L516.994 66.6594Z" fill="#D9D9D9"/>
<path fill-rule="evenodd" clip-rule="evenodd" d="M541.92 50.2881C541.92 64.2134 530.92 75.4863 517.307 75.4863C503.732 75.4863 492.732 64.2134 492.732 50.2881C492.732 36.3627 503.732 25.0898 517.307 25.0898C530.92 25.0898 541.92 36.3627 541.92 50.2881V50.2881ZM535.25 50.2881C535.25 40.1464 527.214 31.916 517.307 31.916C507.438 31.916 499.403 40.1464 499.403 50.2881C499.403 60.4298 507.438 68.6601 517.307 68.6601C527.214 68.6601 535.25 60.4298 535.25 50.2881Z" fill="#D9D9D9"/>
<path d="M690.144 70.1289C691.158 70.1289 691.938 70.4149 692.484 70.987C693.03 71.5591 693.303 72.2743 693.303 73.1324C693.303 73.9905 693.03 74.7057 692.484 75.2778C691.938 75.8239 691.158 76.0969 690.144 76.0969C689.156 76.0969 688.389 75.8239 687.842 75.2778C687.27 74.7317 686.984 74.0166 686.984 73.1324C686.984 72.2743 687.257 71.5591 687.804 70.987C688.35 70.4149 689.13 70.1289 690.144 70.1289V70.1289Z" fill="#D9D9D9"/>
<path d="M708.557 71.9644C709.909 71.9644 711.027 71.5743 711.911 70.7942C712.821 69.988 713.302 69.0129 713.354 67.8687H718.464C718.412 69.3509 717.944 70.7552 717.06 72.0814C716.176 73.3816 714.98 74.4088 713.471 75.1629C711.963 75.917 710.338 76.2941 708.596 76.2941C705.215 76.2941 702.537 75.2019 700.56 73.0175C698.584 70.8332 697.596 67.8037 697.596 63.929V63.3829C697.596 59.7163 698.584 56.7648 700.56 54.5284C702.511 52.3181 705.189 51.2129 708.596 51.2129C711.456 51.2129 713.796 52.058 715.617 53.7483C717.437 55.4126 718.386 57.61 718.464 60.3404H713.354C713.302 58.9622 712.821 57.818 711.911 56.9078C711.027 56.0237 709.909 55.5816 708.557 55.5816C706.788 55.5816 705.423 56.2187 704.461 57.4929C703.525 58.7672 703.044 60.7045 703.018 63.3049V64.163C703.018 66.7895 703.499 68.7398 704.461 70.014C705.397 71.3142 706.762 71.9644 708.557 71.9644V71.9644Z" fill="#D9D9D9"/>
<path fill-rule="evenodd" clip-rule="evenodd" d="M720.648 63.539C720.648 61.1726 721.117 59.0402 722.053 57.1419C722.989 55.2436 724.302 53.7873 725.992 52.7732C727.683 51.733 729.633 51.2129 731.843 51.2129C735.12 51.2129 737.772 52.2661 739.801 54.3724C741.829 56.4788 742.921 59.2612 743.077 62.7198L743.116 64.007C743.116 66.3994 742.661 68.5318 741.751 70.4041C740.815 72.2764 739.502 73.7327 737.811 74.7728C736.095 75.787 734.119 76.2941 731.882 76.2941C728.476 76.2941 725.745 75.1629 723.691 72.9005C721.663 70.6121 720.648 67.5826 720.648 63.812V63.539ZM726.07 64.007C726.07 66.5034 726.577 68.4538 727.592 69.858C728.632 71.2622 730.062 71.9644 731.882 71.9644C733.729 71.9644 735.159 71.2492 736.173 69.819C737.187 68.3888 737.694 66.2954 737.694 63.539C737.694 61.0945 737.174 59.1572 736.134 57.727C735.068 56.2967 733.638 55.5816 731.843 55.5816C730.075 55.5816 728.671 56.2837 727.631 57.688C726.59 59.0922 726.07 61.1986 726.07 64.007V64.007Z" fill="#D9D9D9"/>
<path d="M751.899 51.681L752.055 54.2164C753.745 52.2141 756.073 51.2129 759.037 51.2129C762.262 51.2129 764.472 52.4481 765.668 54.9185C767.437 52.4481 769.907 51.2129 773.08 51.2129C775.758 51.2129 777.747 51.954 779.047 53.4363C780.348 54.9185 781.011 57.0899 781.037 59.9504V75.865H775.615V60.1064C775.615 58.5721 775.277 57.4539 774.601 56.7518C773.925 56.0237 772.819 55.6596 771.285 55.6596C770.037 55.6596 769.023 55.9977 768.243 56.6738C767.463 57.3239 766.916 58.1951 766.604 59.2872L766.643 75.865H761.183V59.9504C761.105 57.0899 759.661 55.6596 756.853 55.6596C754.668 55.6596 753.121 56.5568 752.211 58.3511V75.865H746.789V51.681H751.899Z" fill="#D9D9D9"/>
<path d="M587.945 35.4522C587.945 39.0018 586.423 41.4983 583.42 42.8245C582.679 43.2145 581.704 43.4096 580.494 43.4096C578.622 43.4096 577.023 42.7465 575.736 41.4592C574.409 40.172 573.746 38.2607 573.746 35.8033C573.746 34.165 574.37 32.5658 575.541 30.9665C576.113 30.2384 576.737 29.6923 577.413 29.3282C577.049 29.2502 576.633 29.2112 576.165 29.2112C574.487 29.2112 572.693 30.5764 570.821 33.3459C568.129 37.1295 566.803 42.1614 566.803 48.2074V69.1149C566.803 70.4411 566.881 71.0652 566.959 71.2992C567.037 71.3513 567.167 71.4163 567.349 71.4943C568.246 71.7673 570.626 72.1574 576.555 72.1574H577.881V75.824H542.541V72.1574H543.867C545.974 72.1574 547.924 72.0794 549.64 71.9234C551.083 71.8063 552.332 71.5723 553.424 71.2602C553.502 70.9872 553.619 70.3631 553.619 69.1149V34.165C553.619 32.5267 553.424 32.1367 553.424 32.1367C552.917 31.3956 552.644 31.2395 552.644 31.2395C551.825 31.0445 549.64 30.7715 543.867 30.7715H542.541V27.1829L566.803 25.3105V32.6828C567.011 32.3187 567.245 31.9547 567.505 31.5906C570.197 27.4949 573.707 25.4276 577.881 25.4276C579.519 25.4276 581.275 25.9346 583.108 26.9878C585.019 28.08 586.345 29.4842 587.008 31.1615C587.633 32.7608 587.945 34.204 587.945 35.4522V35.4522Z" fill="#D9D9D9"/>
<path d="M621.729 72.1621H623.055V75.8287H587.754V72.1621H589.08C591.225 72.1621 593.137 72.0841 594.814 71.9281C596.257 71.811 597.545 71.577 598.598 71.2649C598.676 70.9919 598.793 70.4068 598.793 69.1196V9.20554C598.793 7.56726 598.52 7.02117 598.403 6.86515C598.013 6.31905 597.74 6.24104 597.701 6.20204C596.92 6.007 594.775 5.73396 589.197 5.73396H587.832V2.14536L611.977 0V69.1196C611.977 70.4458 612.094 71.0309 612.133 71.3039C612.211 71.356 612.341 71.421 612.523 71.499C613.42 71.772 615.8 72.1621 621.729 72.1621V72.1621Z" fill="#D9D9D9"/>
<path fill-rule="evenodd" clip-rule="evenodd" d="M679.884 71.0329V74.5825L656.168 77.0009V69.5897C656.116 69.6937 656.051 69.7977 655.973 69.9017C653.438 74.5045 649.81 76.8449 645.207 76.8449C639.434 76.8449 634.636 74.6215 630.892 70.2138C626.874 65.533 624.846 59.0189 624.846 50.9055C624.846 45.2886 626.718 39.8277 630.385 34.7178C634.714 28.5548 640.292 25.4343 647.001 25.4343C650.863 25.4343 653.945 27.5406 656.129 31.7143C656.155 31.7403 656.168 31.7663 656.168 31.7923V9.20755C656.168 7.53027 655.856 6.98418 655.778 6.86716C655.544 6.55511 655.193 6.36008 654.686 6.24306C652.93 5.892 648.796 5.73597 642.399 5.73597H641.072V2.14737L642.321 2.03035L669.352 0.0410156V68.0294C669.352 69.3556 669.43 69.9407 669.508 70.1748C669.586 70.2268 669.716 70.2918 669.898 70.3698C670.795 70.6819 673.058 71.0329 678.519 71.0329H679.884ZM655.661 50.7885C655.661 43.5333 654.803 37.9554 653.203 34.2498C651.682 30.8562 649.771 29.2179 647.353 29.2179C644.31 29.2179 642.321 30.5441 641.15 33.3916C639.863 36.5511 639.2 42.4801 639.2 51.0226C639.2 58.7849 639.59 64.2848 640.37 67.3273C641.423 71.306 643.374 73.1783 646.455 73.1783C648.445 73.1783 650.356 71.501 652.111 68.1464C654.452 63.7777 655.661 57.9657 655.661 50.7885V50.7885Z" fill="#D9D9D9"/>
<path fill-rule="evenodd" clip-rule="evenodd" d="M222.025 55.0337H225.614V56.3989C225.614 62.3279 223.663 67.2427 219.841 71.0654C216.018 74.888 210.869 76.8383 204.589 76.8383C199.245 76.8383 194.369 74.81 190.04 70.7923C184.93 66.0725 182.316 59.8315 182.316 52.2252C182.316 44.1119 184.852 37.3637 189.884 32.1759C194.291 27.6901 199.362 25.4277 204.901 25.4277C210.089 25.4277 214.458 26.949 217.89 29.9915C222.844 34.3992 225.38 41.6545 225.38 51.4451V52.8103H196.632C196.749 59.8705 197.646 65.0584 199.323 68.2569C201.001 71.4164 203.458 72.9377 206.813 72.9377C210.557 72.9377 213.912 71.6505 216.798 69.1151C220.27 66.0335 222.025 61.7428 222.025 56.3989V55.0337ZM196.632 48.7536H213.21C213.132 42.3566 212.507 37.3637 211.337 33.9702C210.245 30.6936 208.646 29.1724 206.344 29.1724C202.795 29.1724 200.454 30.6546 199.011 33.8141C197.529 37.0127 196.749 42.0445 196.632 48.7536V48.7536Z" fill="#D9D9D9"/>
<path fill-rule="evenodd" clip-rule="evenodd" d="M280.304 59.5194C280.304 61.0017 280.343 62.4839 280.382 63.9272C280.421 68.608 279.797 71.7285 278.588 73.4838C276.95 75.7072 273.829 76.8383 269.304 76.8383C265.794 76.8383 263.102 76.2142 261.308 74.927C259.904 73.9129 258.772 72.4696 257.992 70.5583C256.393 72.9377 254.326 74.654 251.829 75.6292C249.801 76.4483 247.11 76.8383 243.833 76.8383C240.439 76.8383 237.475 76.0192 234.939 74.3809C231.351 72.1186 229.518 68.647 229.518 64.0832C229.518 59.6755 231.273 55.9308 234.666 52.8883C237.982 50.0409 242.078 48.3636 246.797 47.9735C252.102 47.5444 254.365 46.8423 255.301 46.3352C256.393 45.7501 256.939 44.3069 256.939 42.0055V35.4914C256.939 32.0588 256.237 30.7716 255.847 30.3426C255.535 29.9915 254.404 29.2114 250.698 29.2114C248.358 29.2114 246.29 29.6404 244.535 30.5376C243.716 30.9667 243.014 31.4737 242.507 32.0198C243.807 32.2799 244.899 32.969 245.783 34.0872C246.875 35.4134 247.422 37.0127 247.422 38.729C247.422 40.7183 246.68 42.4346 245.276 43.7218C243.911 44.97 242.273 45.6331 240.439 45.6331C239.152 45.6331 238.06 45.2821 237.085 44.619C234.51 42.9807 233.223 40.7963 233.223 38.1439C233.223 36.9347 233.457 35.6474 233.964 34.1652C235.174 30.8106 238.06 28.3922 242.663 26.91C245.744 25.9348 248.943 25.4277 252.102 25.4277C257.875 25.4277 262.361 26.5589 265.443 28.7823C268.329 30.9277 269.772 33.6581 269.772 36.8957V61.5478C269.772 67.2427 269.967 68.998 270.084 69.5441C270.591 71.9625 271.723 72.2746 272.815 72.2746C274.18 72.2746 274.96 71.6505 275.467 70.1682C276.091 68.3349 276.403 65.5655 276.403 61.9379C276.403 60.9237 276.377 59.8965 276.325 58.8563C276.299 57.8162 276.286 56.724 276.286 55.5798V53.2394H280.304V59.5194ZM256.588 50.1189C255.86 50.4569 255.054 50.691 254.17 50.821C252.401 51.107 250.698 51.3541 249.06 51.5621C247.305 51.9912 245.9 53.0054 244.847 54.6046C243.521 56.594 242.819 59.5195 242.819 63.3031C242.819 68.3739 243.443 70.5583 243.95 71.4554C244.574 72.5476 245.471 73.0937 246.875 73.0937C249.333 73.0937 251.517 72.0405 253.546 69.9342C255.574 67.8668 256.588 65.2924 256.588 62.2889V50.1189Z" fill="#D9D9D9"/>
<path d="M314.865 72.1621H316.191V75.8287H280.852V72.1621H282.217C284.323 72.1621 286.273 72.0841 287.951 71.9281C289.394 71.811 290.642 71.577 291.734 71.2649C291.812 70.9919 291.929 70.4068 291.929 69.1196V9.20554C291.929 7.56726 291.656 7.02117 291.539 6.86515C291.11 6.31905 290.876 6.24104 290.837 6.20204C290.057 6.007 287.912 5.73396 282.295 5.73396H280.969V2.14536L305.114 0V69.1196C305.114 70.4458 305.192 71.0309 305.27 71.3039C305.348 71.356 305.478 71.421 305.66 71.499C306.557 71.772 308.936 72.1621 314.865 72.1621V72.1621Z" fill="#D9D9D9"/>
<path d="M352.074 55.8149C352.074 57.4532 352.113 59.0914 352.191 60.6907C352.191 66.2686 351.528 70.0133 350.202 72.1976C348.329 75.2791 344.741 76.8394 339.553 76.8394C334.716 76.8394 331.089 75.5912 328.748 73.1728C326.447 70.7934 325.277 67.3608 325.277 62.9921V32.567H316.305V31.1238H315.252L316.305 30.7727V29.1734L317.319 28.9004C323.053 27.5352 327.422 24.1416 330.308 18.9147C332.688 14.624 333.858 9.74818 333.858 4.36528V3.03906H338.461V26.638H351.294V32.567H338.461V61.5489C338.461 66.4247 338.656 68.297 338.851 69.0381C339.436 71.2615 340.528 72.2757 342.478 72.2757C344.858 72.2757 346.34 71.0274 347.159 68.336C347.744 66.2296 348.056 62.0949 348.056 56.0099V49.3398H352.074V55.8149Z" fill="#D9D9D9"/>
<path fill-rule="evenodd" clip-rule="evenodd" d="M492.11 25.4277V29.2114H490.783C488.287 29.2114 486.376 29.7965 485.049 30.9277C484.113 31.7858 482.475 34.1652 480.173 40.7573L468.003 76.4093H463.947L463.791 75.9412L454.39 44.2679L444.678 76.4093H440.66L440.504 75.9802L423.887 32.4879C423.029 30.3036 422.366 29.7965 422.093 29.6794C421.781 29.5624 420.533 29.2114 415.969 29.2114H414.604V25.4277H470.617V26.832H470.773V25.4277H492.11ZM452.284 37.2467L450.88 32.4099C450.138 29.9525 449.709 29.5234 449.67 29.4844C449.67 29.4844 449.202 29.2114 447.018 29.2114H442.766C441.076 29.2114 439.36 29.2244 437.617 29.2504C436.915 29.2504 436.486 29.3674 436.291 29.4454C436.33 29.6404 436.447 30.1085 436.837 31.0447L446.316 56.984L452.284 37.2467ZM478.223 32.3319C478.223 31.5518 478.223 29.1724 472.06 29.1724H470.734V27.066L470.617 27.027V29.1724H469.291C467.574 29.1724 465.884 29.1984 464.22 29.2504C463.518 29.2504 463.167 29.3674 463.011 29.4064C463.05 29.6404 463.128 30.1475 463.518 31.2397L470.734 56.0089L476.936 37.9488C477.794 35.4914 478.223 33.6191 478.223 32.3319V32.3319Z" fill="#D9D9D9"/>
<path d="M414.958 72.1621H416.285V75.8287H388.161V72.0841C388.785 72.0581 389.435 72.0061 390.111 71.9281C391.36 71.811 392.53 71.616 393.505 71.2649C393.583 71.0309 393.7 70.4068 393.7 69.1196V38.7725C393.7 35.769 393.388 33.5066 392.803 32.1024C391.984 30.113 390.462 29.2159 388.122 29.2159C385.508 29.2159 383.207 31.0492 381.218 34.6768C379.462 37.9534 378.214 42.049 377.59 46.7688V69.1196C377.59 70.4458 377.668 71.0309 377.746 71.3039C377.824 71.33 377.954 71.382 378.136 71.46C378.409 71.577 379.072 71.772 380.828 71.9281C381.842 72.0451 382.778 72.1231 383.675 72.1231V75.8287H353.328V72.1621H354.654C356.8 72.1621 358.75 72.0841 360.427 71.9281C361.871 71.811 363.119 71.577 364.211 71.2649C364.289 70.9919 364.406 70.3678 364.406 69.1196V10.3367C364.406 9.40057 364.393 8.60744 364.367 7.95733C364.328 7.41124 364.211 7.21621 364.133 7.1382C363.587 6.31906 363.314 6.20204 363.314 6.20204C362.495 6.007 360.349 5.73396 354.771 5.73396H353.445V2.14536L377.59 0V33.0775C377.824 32.6355 378.084 32.1934 378.37 31.7513C380.75 27.9677 383.675 25.8613 387.069 25.5493C387.771 25.5103 388.356 25.5103 389.019 25.4323C389.799 25.3542 390.358 25.3152 390.696 25.3152C396.274 25.3152 400.565 26.8755 403.413 29.996C405.714 32.5705 406.884 35.73 406.884 39.4356V69.1196C406.884 70.4068 406.962 71.0309 407.04 71.2649C407.118 71.3169 407.261 71.382 407.469 71.46C407.742 71.577 408.483 71.772 410.395 71.9281C411.877 72.0841 413.437 72.1621 414.958 72.1621V72.1621Z" fill="#D9D9D9"/>
<path d="M137.968 1.05273H181.889V4.71934H180.524C177.247 4.71934 174.517 4.83637 172.41 5.0314C170.382 5.26544 168.783 5.57749 167.691 5.96756L167.105 6.2406C166.988 6.51365 166.793 7.4108 166.793 9.67318V67.0908C166.793 69.7042 166.988 70.4453 167.066 70.6013C167.066 70.6013 167.222 70.7184 167.73 70.9134C169.095 71.4205 172.41 72.0446 180.524 72.0446H181.889V75.8282H137.968V72.0446C143.585 71.9666 147.446 71.6155 149.318 70.9134C149.904 70.6794 150.099 70.5623 150.138 70.5233C150.138 70.4843 150.372 69.8212 150.372 67.0908V39.4742H121.156V67.0908C121.156 69.4702 121.351 70.3283 121.429 70.5624C121.507 70.6404 121.741 70.7574 122.248 70.9524C122.677 71.1474 123.847 71.4595 126.656 71.7325C128.606 71.9276 130.907 72.0056 133.443 72.0446V75.8282H89.5215V72.0446H90.8477C94.0072 72.0446 96.7377 71.9276 99.0391 71.7325C101.926 71.4595 103.096 71.1474 103.486 70.9524C104.11 70.7184 104.422 70.4843 104.5 70.3283C104.5 70.3283 104.734 69.7822 104.734 67.0908V9.67318C104.734 7.17676 104.5 6.43563 104.461 6.31861C104.422 6.31861 104.188 6.16259 103.681 5.96756C103.135 5.81153 101.887 5.49948 98.922 5.14842C96.5036 4.87537 93.7732 4.71934 90.8477 4.71934H89.5215V1.05273H133.443V4.71934C128.06 4.79736 124.237 5.18743 122.17 5.96756C121.78 6.12358 121.585 6.2406 121.507 6.31861C121.39 6.59166 121.156 7.44981 121.156 9.67318V34.9104H150.372V9.67318C150.372 7.02073 150.021 6.39663 149.982 6.31861C149.982 6.31861 149.787 6.2016 149.201 5.96756C148.733 5.81153 147.524 5.49948 144.482 5.14842C142.453 4.91438 140.23 4.79736 137.968 4.75835V1.05273Z" fill="#D9D9D9"/>
</svg>
